<?xml version="1.0" encoding="UTF-8"?>
<!DOCTYPE svg PUBLIC "-//W3C//DTD SVG 1.1//EN" "http://www.w3.org/Graphics/SVG/1.1/DTD/svg11.dtd">
<svg xmlns="http://www.w3.org/2000/svg" version="1.1" width="2000px" height="1342px" style="shape-rendering:geometricPrecision; text-rendering:geometricPrecision; image-rendering:optimizeQuality; fill-rule:evenodd; clip-rule:evenodd" xmlns:xlink="http://www.w3.org/1999/xlink">
<g><path style="opacity:0.998" fill="#4cb8dc" d="M -0.5,-0.5 C 80.1667,-0.5 160.833,-0.5 241.5,-0.5C 241.5,370.833 241.5,742.167 241.5,1113.5C 383.168,1113.17 524.835,1113.5 666.5,1114.5C 657.255,1180.79 648.255,1247.13 639.5,1313.5C 426.167,1313.5 212.833,1313.5 -0.5,1313.5C -0.5,875.5 -0.5,437.5 -0.5,-0.5 Z"/></g>
<g><path style="opacity:0.996" fill="#4db8dd" d="M 792.5,-0.5 C 915.5,-0.5 1038.5,-0.5 1161.5,-0.5C 1226.34,2.58733 1289.68,14.4207 1351.5,35C 1486.12,84.3205 1560.95,180.487 1576,323.5C 1585.45,400.652 1576.79,475.652 1550,548.5C 1523.08,617.217 1478.58,671.384 1416.5,711C 1400.12,720.523 1383.45,729.523 1366.5,738C 1459.23,929.302 1551.57,1120.8 1643.5,1312.5C 1556.17,1313.5 1468.84,1313.83 1381.5,1313.5C 1304.97,1137.08 1228.13,960.746 1151,784.5C 1112.57,783.504 1074.07,783.17 1035.5,783.5C 1035.5,960.167 1035.5,1136.83 1035.5,1313.5C 954.5,1313.5 873.5,1313.5 792.5,1313.5C 792.5,875.5 792.5,437.5 792.5,-0.5 Z M 1035.5,176.5 C 1066.5,176.333 1097.5,176.5 1128.5,177C 1164.85,178.07 1199.85,185.403 1233.5,199C 1274.96,218.476 1302.13,250.31 1315,294.5C 1330.99,354.964 1331.66,415.63 1317,476.5C 1298.46,548.702 1252.29,590.535 1178.5,602C 1161.95,604.808 1145.28,606.474 1128.5,607C 1097.5,607.5 1066.5,607.667 1035.5,607.5C 1035.5,463.833 1035.5,320.167 1035.5,176.5 Z"/></g>
<g><path style="opacity:0.995" fill="#4db8dd" d="M 1999.5,1177.5 C 1999.5,1188.17 1999.5,1198.83 1999.5,1209.5C 1993.72,1260.42 1969.05,1299.26 1925.5,1326C 1910.55,1333.71 1894.88,1338.87 1878.5,1341.5C 1862.83,1341.5 1847.17,1341.5 1831.5,1341.5C 1772.08,1329.59 1733.25,1294.59 1715,1236.5C 1700.34,1176.53 1714.5,1124.69 1757.5,1081C 1787.65,1054.28 1822.98,1042.28 1863.5,1045C 1923.55,1049.43 1965.38,1079.26 1989,1134.5C 1994.26,1148.55 1997.76,1162.88 1999.5,1177.5 Z"/></g>
</svg>
