<svg xmlns="http://www.w3.org/2000/svg" version="1.1" xmlns:xlink="http://www.w3.org/1999/xlink" xmlns:svgjs="http://svgjs.dev/svgjs" width="2000" height="1070" viewBox="0 0 2000 1070"><g transform="matrix(1,0,0,1,-1.2121212121212466,-0.7537809744321748)"><svg viewBox="0 0 396 212" data-background-color="#ffffff" preserveAspectRatio="xMidYMid meet" height="1070" width="2000" xmlns="http://www.w3.org/2000/svg" xmlns:xlink="http://www.w3.org/1999/xlink"><g id="tight-bounds" transform="matrix(1,0,0,1,0.2400000000000091,0.14934725848563346)"><svg viewBox="0 0 395.52 211.70130548302873" height="211.70130548302873" width="395.52"><g><svg viewBox="0 0 395.52 211.70130548302873" height="211.70130548302873" width="395.52"><g><svg viewBox="0 0 395.52 211.70130548302873" height="211.70130548302873" width="395.52"><g id="textblocktransform"><svg viewBox="0 0 395.52 211.70130548302873" height="211.70130548302873" width="395.52" id="textblock"><g><svg viewBox="0 0 395.52 211.70130548302873" height="211.70130548302873" width="395.52"><g transform="matrix(1,0,0,1,0,0)"><svg width="395.52" viewBox="2.1499999999999995 -40.35 76.6 41" height="211.70130548302873" data-palette-color="#4db9dd"><path d="M32.65 0L9.45 0 2.3 0.15Q2-0.75 2.3-1.65L2.3-1.65 6.45-2.2Q6.65-4.75 6.65-8.1L6.65-8.1 6.65-37.6 2.6-38.1Q2.4-38.85 2.6-39.95L2.6-39.95Q5.35-39.75 9.45-39.75L9.45-39.75Q13.1-39.75 16.35-39.9L16.35-39.9Q16.65-39 16.35-38.1L16.35-38.1 12.2-37.5Q12-35.6 12-31.65L12-31.65 12-2.55 28.5-2.55 30.85-11.6Q31.6-11.8 32.7-11.6L32.7-11.6 32.65 0ZM36.55-39.95L36.55-39.95Q38.6-39.95 43.07-40.15 47.55-40.35 51.2-40.35L51.2-40.35Q58.8-40.35 62.05-37.33 65.3-34.3 65.3-28.9L65.3-28.9Q65.3-25.65 63.05-23.05 60.8-20.45 57.15-19.15L57.15-19.15Q59.3-15.5 61.17-12.3 63.05-9.1 63.9-7.55 64.75-6 65.45-4.78 66.15-3.55 66.47-3.1 66.8-2.65 67.1-2.35L67.1-2.35 70.7-1.85Q70.9-1.1 70.7 0L70.7 0 62.2 0 54.65-13.7Q53.15-16.55 51.8-18.1L51.8-18.1 51.1-18.1Q48.55-18.1 45.95-18.4L45.95-18.4 45.95-2.2 50.5-1.7Q50.7-0.95 50.5 0.15L50.5 0.15Q47.35 0 43.4 0L43.4 0Q40.45 0 36.25 0.1L36.25 0.1Q35.95-0.8 36.25-1.7L36.25-1.7 40.4-2.3Q40.6-4.2 40.6-8.15L40.6-8.15 40.6-37.6 36.55-38.1Q36.35-38.85 36.55-39.95ZM45.95-31.65L45.95-31.65 45.95-20.45Q47.5-20.25 50.45-20.25L50.45-20.25Q53-20.25 54.82-21.08 56.65-21.9 57.55-23.28 58.45-24.65 58.85-26.1 59.25-27.55 59.25-29.15L59.25-29.15Q59.25-33.45 57.1-35.85 54.95-38.25 49.95-38.25L49.95-38.25Q48.1-38.25 46.25-37.9L46.25-37.9Q45.95-35.05 45.95-31.65ZM75.55-5.55L75.55-5.55Q76.9-5.55 77.82-4.67 78.75-3.8 78.75-2.5L78.75-2.5Q78.75-1.2 77.82-0.28 76.9 0.65 75.6 0.65L75.6 0.65Q74.3 0.65 73.37-0.28 72.45-1.2 72.45-2.5L72.45-2.5Q72.45-3.8 73.35-4.67 74.25-5.55 75.55-5.55Z" opacity="1" transform="matrix(1,0,0,1,0,0)" fill="#4db9dd" class="wordmark-text-0" data-fill-palette-color="primary" id="text-0"></path></svg></g></svg></g></svg></g></svg></g></svg></g><defs></defs></svg><rect width="395.52" height="211.70130548302873" fill="none" stroke="none" visibility="hidden"></rect></g></svg></g></svg>