<svg xmlns="http://www.w3.org/2000/svg" version="1.1" xmlns:xlink="http://www.w3.org/1999/xlink" xmlns:svgjs="http://svgjs.dev/svgjs" width="2000" height="979" viewBox="0 0 2000 979"><g transform="matrix(1,0,0,1,-1.2121212121212466,-0.30987028492029367)"><svg viewBox="0 0 396 194" data-background-color="#ffffff" preserveAspectRatio="xMidYMid meet" height="979" width="2000" xmlns="http://www.w3.org/2000/svg" xmlns:xlink="http://www.w3.org/1999/xlink"><g id="tight-bounds" transform="matrix(1,0,0,1,0.2400000000000091,0.06140432612312452)"><svg viewBox="0 0 395.52 193.87719134775375" height="193.87719134775375" width="395.52"><g><svg viewBox="0 0 395.52 193.87719134775375" height="193.87719134775375" width="395.52"><g><svg viewBox="0 0 395.52 193.87719134775375" height="193.87719134775375" width="395.52"><g id="textblocktransform"><svg viewBox="0 0 395.52 193.87719134775375" height="193.87719134775375" width="395.52" id="textblock"><g><svg viewBox="0 0 395.52 193.87719134775375" height="193.87719134775375" width="395.52"><g transform="matrix(1,0,0,1,0,0)"><svg width="395.52" viewBox="3.98 -35.16 73.36 35.97" height="193.87719134775375" data-palette-color="#4db9dd"><path d="M29.22-4.47L29.22 0 3.98 0 3.98-35.16 13.67-35.16 13.67-4.47 29.22-4.47ZM43.48-13.13L43.48 0 33.79 0 33.79-35.16 51.07-35.16Q53.51-35.16 55.78-34.58 58.05-34.01 59.8-32.78 61.55-31.54 62.58-29.59 63.62-27.64 63.62-24.85L63.62-24.85Q63.62-22.68 62.71-20.76 61.79-18.85 60.26-17.35 58.74-15.84 56.76-14.86 54.78-13.87 52.66-13.55L52.66-13.55Q53.61-11.94 54.65-10.5 55.69-9.06 56.75-7.8 57.81-6.54 58.86-5.48 59.91-4.42 60.86-3.54L60.86-3.54Q63.11-1.49 65.31 0L65.31 0 53.22 0Q51.76-1.39 50.44-3.34L50.44-3.34Q49.31-5 48.18-7.46 47.04-9.91 46.43-13.13L46.43-13.13 43.48-13.13ZM53.78-24.85L53.78-24.85Q53.78-28.39 52.06-30.05 50.34-31.71 46.9-31.71L46.9-31.71 43.48-31.71 43.48-16.46 46.9-16.46Q48.73-16.46 50.03-17.15 51.34-17.85 52.17-19.01 53-20.17 53.39-21.68 53.78-23.19 53.78-24.85ZM77.34-3.66L77.34-3.66Q77.34-2.73 77-1.92 76.66-1.1 76.04-0.5 75.43 0.1 74.63 0.45 73.82 0.81 72.9 0.81L72.9 0.81Q71.97 0.81 71.16 0.45 70.36 0.1 69.75-0.5 69.14-1.1 68.79-1.92 68.45-2.73 68.45-3.66L68.45-3.66Q68.45-4.57 68.79-5.38 69.14-6.2 69.75-6.8 70.36-7.4 71.16-7.75 71.97-8.11 72.9-8.11L72.9-8.11Q73.82-8.11 74.63-7.75 75.43-7.4 76.04-6.8 76.66-6.2 77-5.38 77.34-4.57 77.34-3.66Z" opacity="1" transform="matrix(1,0,0,1,0,0)" fill="#4db9dd" class="wordmark-text-0" data-fill-palette-color="primary" id="text-0"></path></svg></g></svg></g></svg></g></svg></g></svg></g><defs></defs></svg><rect width="395.52" height="193.87719134775375" fill="none" stroke="none" visibility="hidden"></rect></g></svg></g></svg>