<svg xmlns="http://www.w3.org/2000/svg" version="1.1" xmlns:xlink="http://www.w3.org/1999/xlink" xmlns:svgjs="http://svgjs.dev/svgjs" width="2000" height="1500" viewBox="0 0 2000 1500"><rect width="2000" height="1500" fill="#000000"></rect><g transform="matrix(0.75,0,0,0.75,249.090909090909,376.53574738580767)"><svg viewBox="0 0 396 197" data-background-color="#000000" preserveAspectRatio="xMidYMid meet" height="994" width="2000" xmlns="http://www.w3.org/2000/svg" xmlns:xlink="http://www.w3.org/1999/xlink"><g id="tight-bounds" transform="matrix(1,0,0,1,0.2400000000000091,0.18874281018899808)"><svg viewBox="0 0 395.52 196.622514379622" height="196.622514379622" width="395.52"><g><svg viewBox="0 0 395.52 196.622514379622" height="196.622514379622" width="395.52"><g><svg viewBox="0 0 395.52 196.622514379622" height="196.622514379622" width="395.52"><g id="textblocktransform"><svg viewBox="0 0 395.52 196.622514379622" height="196.622514379622" width="395.52" id="textblock"><g><svg viewBox="0 0 395.52 196.622514379622" height="196.622514379622" width="395.52"><g transform="matrix(1,0,0,1,0,0)"><svg width="395.52" viewBox="1.95 -29.3 59.419999999999995 29.54" height="196.622514379622" data-palette-color="#ffffff"><path d="M1.95 0L23.34 0 23.58-9.77 22.61-9.77 21.78-6.49Q20.61-2 17.87-1.37L17.87-1.37Q17.29-1.27 16.75-1.27L16.75-1.27 10.06-1.27 10.06-28.03 14.16-28.03 14.16-29.3 1.95-29.3 1.95-28.03 5.86-28.03 5.86-1.27 1.95-1.27 1.95 0ZM26.02 0L37.99 0 37.99-1.27 34.13-1.27 34.13-13.43 38.77-13.43 46.58 0 53.95 0Q53.95-1.07 53.37-1.22L53.37-1.22Q53.12-1.27 52.78-1.27L52.78-1.27 50.93-1.27 43.06-13.87Q47.7-14.99 49.41-18.7L49.41-18.7Q50.05-20.17 50.05-21.68L50.05-21.68Q50.05-25.34 46.87-27.54L46.87-27.54Q44.28-29.3 40.48-29.3L40.48-29.3 26.02-29.3 26.02-28.03 29.93-28.03 29.93-1.27 26.02-1.27 26.02 0ZM34.13-28.03L39.01-28.03Q43.21-28.03 44.82-24.61L44.82-24.61Q45.46-23.19 45.46-21.63L45.46-21.63Q45.46-18.12 43.02-16.16L43.02-16.16Q41.35-14.84 39.16-14.84L39.16-14.84 34.13-14.84 34.13-28.03ZM61.37-2.25L61.37-2.25Q61.37-3.86 59.91-4.54L59.91-4.54Q59.42-4.79 58.88-4.79L58.88-4.79Q57.27-4.79 56.64-3.32L56.64-3.32Q56.39-2.78 56.39-2.25L56.39-2.25Q56.39-0.68 57.81 0L57.81 0Q58.34 0.24 58.88 0.24L58.88 0.24Q60.44 0.24 61.13-1.17L61.13-1.17Q61.37-1.71 61.37-2.25Z" opacity="1" transform="matrix(1,0,0,1,0,0)" fill="#ffffff" class="wordmark-text-0" data-fill-palette-color="primary" id="text-0"></path></svg></g></svg></g></svg></g></svg></g></svg></g><defs></defs></svg><rect width="395.52" height="196.622514379622" fill="none" stroke="none" visibility="hidden"></rect></g></svg></g></svg>